<mxfile host="app.diagrams.net" modified="2024-03-15T21:27:27.004Z" agent="Mozilla/5.0 (X11; Linux x86_64) AppleWebKit/537.36 (KHTML, like Gecko) Chrome/120.0.0.0 Safari/537.36" etag="0BhvROvn4C_6VCf0c8Xv" version="24.0.6" type="device" pages="2">
  <diagram name="Page-1" id="T3aSJcfBJikkCmrAU6Eh">
    <mxGraphModel dx="2206" dy="1058" grid="1" gridSize="10" guides="1" tooltips="1" connect="1" arrows="1" fold="1" page="1" pageScale="1" pageWidth="2000" pageHeight="1000" math="0" shadow="0">
      <root>
        <mxCell id="0" />
        <mxCell id="1" parent="0" />
        <mxCell id="H5AnbG4PNeN4ptyV_F0R-3" value="Wage Certificate" style="rounded=0;whiteSpace=wrap;html=1;" vertex="1" parent="1">
          <mxGeometry x="550" y="310" width="180" height="50" as="geometry" />
        </mxCell>
        <mxCell id="H5AnbG4PNeN4ptyV_F0R-4" value="Address" style="rounded=0;whiteSpace=wrap;html=1;fillColor=#f8cecc;strokeColor=#b85450;" vertex="1" parent="1">
          <mxGeometry x="550" y="360" width="90" height="50" as="geometry" />
        </mxCell>
        <mxCell id="H5AnbG4PNeN4ptyV_F0R-5" value="Wage" style="rounded=0;whiteSpace=wrap;html=1;fillColor=#f8cecc;strokeColor=#b85450;" vertex="1" parent="1">
          <mxGeometry x="640" y="360" width="90" height="50" as="geometry" />
        </mxCell>
        <mxCell id="H5AnbG4PNeN4ptyV_F0R-15" style="edgeStyle=orthogonalEdgeStyle;rounded=0;orthogonalLoop=1;jettySize=auto;html=1;exitX=0;exitY=0.5;exitDx=0;exitDy=0;entryX=1;entryY=0.5;entryDx=0;entryDy=0;" edge="1" parent="1" source="H5AnbG4PNeN4ptyV_F0R-6" target="H5AnbG4PNeN4ptyV_F0R-3">
          <mxGeometry relative="1" as="geometry" />
        </mxCell>
        <mxCell id="H5AnbG4PNeN4ptyV_F0R-6" value="Government" style="rounded=0;whiteSpace=wrap;html=1;" vertex="1" parent="1">
          <mxGeometry x="850" y="310" width="180" height="100" as="geometry" />
        </mxCell>
        <mxCell id="H5AnbG4PNeN4ptyV_F0R-7" value="Public Key" style="rounded=0;whiteSpace=wrap;html=1;fillColor=#d5e8d4;strokeColor=#82b366;" vertex="1" parent="1">
          <mxGeometry x="850" y="410" width="180" height="50" as="geometry" />
        </mxCell>
        <mxCell id="H5AnbG4PNeN4ptyV_F0R-8" value="Digital Signature" style="rounded=0;whiteSpace=wrap;html=1;fillColor=#d5e8d4;strokeColor=#82b366;" vertex="1" parent="1">
          <mxGeometry x="550" y="410" width="180" height="50" as="geometry" />
        </mxCell>
        <mxCell id="H5AnbG4PNeN4ptyV_F0R-11" value="&lt;div&gt;&lt;br&gt;&lt;/div&gt;&lt;div&gt;&lt;br&gt;&lt;/div&gt;&lt;div&gt;User&lt;/div&gt;" style="shape=actor;whiteSpace=wrap;html=1;fillColor=#f8cecc;strokeColor=#b85450;" vertex="1" parent="1">
          <mxGeometry x="640" y="180" width="70" height="90" as="geometry" />
        </mxCell>
        <mxCell id="H5AnbG4PNeN4ptyV_F0R-12" value="Can you issue a certificate for me?" style="shape=callout;whiteSpace=wrap;html=1;perimeter=calloutPerimeter;" vertex="1" parent="1">
          <mxGeometry x="650" y="100" width="120" height="80" as="geometry" />
        </mxCell>
        <mxCell id="H5AnbG4PNeN4ptyV_F0R-13" value="&lt;div&gt;&lt;br&gt;&lt;/div&gt;&lt;div&gt;&lt;br&gt;&lt;/div&gt;&lt;div&gt;Gov&lt;/div&gt;" style="shape=actor;whiteSpace=wrap;html=1;fillColor=#d5e8d4;strokeColor=#82b366;" vertex="1" parent="1">
          <mxGeometry x="850" y="180" width="70" height="90" as="geometry" />
        </mxCell>
        <mxCell id="H5AnbG4PNeN4ptyV_F0R-14" value="Sure." style="shape=callout;whiteSpace=wrap;html=1;perimeter=calloutPerimeter;size=30;position=0.33;" vertex="1" parent="1">
          <mxGeometry x="790" y="115" width="120" height="80" as="geometry" />
        </mxCell>
        <mxCell id="H5AnbG4PNeN4ptyV_F0R-16" value="&lt;div&gt;&lt;br&gt;&lt;/div&gt;&lt;div&gt;&lt;br&gt;&lt;/div&gt;&lt;div&gt;User&lt;/div&gt;" style="shape=actor;whiteSpace=wrap;html=1;fillColor=#f8cecc;strokeColor=#b85450;" vertex="1" parent="1">
          <mxGeometry x="440" y="340" width="70" height="90" as="geometry" />
        </mxCell>
        <mxCell id="H5AnbG4PNeN4ptyV_F0R-17" value="&lt;div&gt;&lt;br&gt;&lt;/div&gt;&lt;div&gt;&lt;br&gt;&lt;/div&gt;&lt;div&gt;Gov&lt;/div&gt;" style="shape=actor;whiteSpace=wrap;html=1;fillColor=#d5e8d4;strokeColor=#82b366;" vertex="1" parent="1">
          <mxGeometry x="1060" y="340" width="70" height="90" as="geometry" />
        </mxCell>
        <mxCell id="H5AnbG4PNeN4ptyV_F0R-19" value="Wage" style="rounded=0;whiteSpace=wrap;html=1;fillColor=#f8cecc;strokeColor=#b85450;" vertex="1" parent="1">
          <mxGeometry x="775" y="570" width="60" height="50" as="geometry" />
        </mxCell>
        <mxCell id="H5AnbG4PNeN4ptyV_F0R-20" value="Proof" style="rounded=0;whiteSpace=wrap;html=1;" vertex="1" parent="1">
          <mxGeometry x="715" y="520" width="180" height="50" as="geometry" />
        </mxCell>
        <mxCell id="H5AnbG4PNeN4ptyV_F0R-21" value="Required" style="rounded=0;whiteSpace=wrap;html=1;fillColor=#d5e8d4;strokeColor=#82b366;" vertex="1" parent="1">
          <mxGeometry x="835" y="570" width="60" height="50" as="geometry" />
        </mxCell>
        <mxCell id="H5AnbG4PNeN4ptyV_F0R-22" value="Address" style="rounded=0;whiteSpace=wrap;html=1;fillColor=#f8cecc;strokeColor=#b85450;" vertex="1" parent="1">
          <mxGeometry x="715" y="570" width="60" height="50" as="geometry" />
        </mxCell>
        <mxCell id="H5AnbG4PNeN4ptyV_F0R-23" value="Digital Signature" style="rounded=0;whiteSpace=wrap;html=1;fillColor=#d5e8d4;strokeColor=#82b366;" vertex="1" parent="1">
          <mxGeometry x="715" y="620" width="180" height="50" as="geometry" />
        </mxCell>
        <mxCell id="H5AnbG4PNeN4ptyV_F0R-24" value="Verify:&lt;div&gt;Wage &amp;gt;= Required&lt;/div&gt;" style="rounded=0;whiteSpace=wrap;html=1;" vertex="1" parent="1">
          <mxGeometry x="715" y="670" width="180" height="50" as="geometry" />
        </mxCell>
        <mxCell id="H5AnbG4PNeN4ptyV_F0R-25" value="&lt;div&gt;&lt;br&gt;&lt;/div&gt;&lt;div&gt;&lt;br&gt;&lt;/div&gt;&lt;div&gt;User&lt;/div&gt;" style="shape=actor;whiteSpace=wrap;html=1;fillColor=#f8cecc;strokeColor=#b85450;" vertex="1" parent="1">
          <mxGeometry x="560" y="577" width="70" height="90" as="geometry" />
        </mxCell>
        <mxCell id="H5AnbG4PNeN4ptyV_F0R-26" value="&lt;div&gt;&lt;br&gt;&lt;/div&gt;&lt;div&gt;&lt;br&gt;&lt;/div&gt;&lt;div&gt;Bank&lt;/div&gt;" style="shape=actor;whiteSpace=wrap;html=1;fillColor=#ffe6cc;strokeColor=#d79b00;" vertex="1" parent="1">
          <mxGeometry x="950" y="578" width="70" height="90" as="geometry" />
        </mxCell>
        <mxCell id="H5AnbG4PNeN4ptyV_F0R-27" value="Here is my proof. You can verify the signature with the government" style="shape=callout;whiteSpace=wrap;html=1;perimeter=calloutPerimeter;" vertex="1" parent="1">
          <mxGeometry x="560" y="500" width="140" height="90" as="geometry" />
        </mxCell>
      </root>
    </mxGraphModel>
  </diagram>
  <diagram id="ZXbW_Q6l15vec75NETDL" name="Page-2">
    <mxGraphModel dx="1434" dy="688" grid="1" gridSize="10" guides="1" tooltips="1" connect="1" arrows="1" fold="1" page="1" pageScale="1" pageWidth="2000" pageHeight="1000" math="0" shadow="0">
      <root>
        <mxCell id="0" />
        <mxCell id="1" parent="0" />
        <mxCell id="IDN6OJwdZ1_YzEZNnsdo-4" style="edgeStyle=orthogonalEdgeStyle;rounded=0;orthogonalLoop=1;jettySize=auto;html=1;exitX=0.5;exitY=1;exitDx=0;exitDy=0;entryX=0.5;entryY=0;entryDx=0;entryDy=0;" edge="1" parent="1" source="IDN6OJwdZ1_YzEZNnsdo-1" target="IDN6OJwdZ1_YzEZNnsdo-2">
          <mxGeometry relative="1" as="geometry" />
        </mxCell>
        <mxCell id="IDN6OJwdZ1_YzEZNnsdo-5" style="edgeStyle=orthogonalEdgeStyle;rounded=0;orthogonalLoop=1;jettySize=auto;html=1;exitX=0.5;exitY=1;exitDx=0;exitDy=0;entryX=0.5;entryY=0;entryDx=0;entryDy=0;" edge="1" parent="1" source="IDN6OJwdZ1_YzEZNnsdo-1" target="IDN6OJwdZ1_YzEZNnsdo-3">
          <mxGeometry relative="1" as="geometry" />
        </mxCell>
        <mxCell id="IDN6OJwdZ1_YzEZNnsdo-1" value="Circuit" style="rounded=0;whiteSpace=wrap;html=1;" vertex="1" parent="1">
          <mxGeometry x="680" y="330" width="120" height="60" as="geometry" />
        </mxCell>
        <mxCell id="IDN6OJwdZ1_YzEZNnsdo-11" style="edgeStyle=orthogonalEdgeStyle;rounded=0;orthogonalLoop=1;jettySize=auto;html=1;exitX=0.5;exitY=1;exitDx=0;exitDy=0;entryX=0.5;entryY=0;entryDx=0;entryDy=0;" edge="1" parent="1" source="IDN6OJwdZ1_YzEZNnsdo-2" target="IDN6OJwdZ1_YzEZNnsdo-8">
          <mxGeometry relative="1" as="geometry" />
        </mxCell>
        <mxCell id="IDN6OJwdZ1_YzEZNnsdo-2" value="R1CS" style="rounded=0;whiteSpace=wrap;html=1;" vertex="1" parent="1">
          <mxGeometry x="590" y="440" width="120" height="60" as="geometry" />
        </mxCell>
        <mxCell id="IDN6OJwdZ1_YzEZNnsdo-7" style="edgeStyle=orthogonalEdgeStyle;rounded=0;orthogonalLoop=1;jettySize=auto;html=1;exitX=0.5;exitY=1;exitDx=0;exitDy=0;entryX=0.5;entryY=0;entryDx=0;entryDy=0;" edge="1" parent="1" source="IDN6OJwdZ1_YzEZNnsdo-3" target="IDN6OJwdZ1_YzEZNnsdo-6">
          <mxGeometry relative="1" as="geometry" />
        </mxCell>
        <mxCell id="IDN6OJwdZ1_YzEZNnsdo-3" value="WASM" style="rounded=0;whiteSpace=wrap;html=1;" vertex="1" parent="1">
          <mxGeometry x="770" y="440" width="120" height="60" as="geometry" />
        </mxCell>
        <mxCell id="IDN6OJwdZ1_YzEZNnsdo-16" style="edgeStyle=orthogonalEdgeStyle;rounded=0;orthogonalLoop=1;jettySize=auto;html=1;exitX=0.5;exitY=1;exitDx=0;exitDy=0;" edge="1" parent="1" source="IDN6OJwdZ1_YzEZNnsdo-6">
          <mxGeometry relative="1" as="geometry">
            <mxPoint x="720" y="640" as="targetPoint" />
          </mxGeometry>
        </mxCell>
        <mxCell id="IDN6OJwdZ1_YzEZNnsdo-18" style="edgeStyle=orthogonalEdgeStyle;rounded=0;orthogonalLoop=1;jettySize=auto;html=1;exitX=0.5;exitY=1;exitDx=0;exitDy=0;entryX=0.5;entryY=0;entryDx=0;entryDy=0;" edge="1" parent="1" source="IDN6OJwdZ1_YzEZNnsdo-6" target="IDN6OJwdZ1_YzEZNnsdo-14">
          <mxGeometry relative="1" as="geometry" />
        </mxCell>
        <mxCell id="IDN6OJwdZ1_YzEZNnsdo-6" value="WTNS" style="rounded=0;whiteSpace=wrap;html=1;" vertex="1" parent="1">
          <mxGeometry x="850" y="540" width="120" height="60" as="geometry" />
        </mxCell>
        <mxCell id="IDN6OJwdZ1_YzEZNnsdo-15" style="edgeStyle=orthogonalEdgeStyle;rounded=0;orthogonalLoop=1;jettySize=auto;html=1;exitX=0.5;exitY=1;exitDx=0;exitDy=0;entryX=0.5;entryY=0;entryDx=0;entryDy=0;" edge="1" parent="1" source="IDN6OJwdZ1_YzEZNnsdo-8" target="IDN6OJwdZ1_YzEZNnsdo-12">
          <mxGeometry relative="1" as="geometry" />
        </mxCell>
        <mxCell id="IDN6OJwdZ1_YzEZNnsdo-17" style="edgeStyle=orthogonalEdgeStyle;rounded=0;orthogonalLoop=1;jettySize=auto;html=1;exitX=0.5;exitY=1;exitDx=0;exitDy=0;entryX=0.5;entryY=0;entryDx=0;entryDy=0;" edge="1" parent="1" source="IDN6OJwdZ1_YzEZNnsdo-8" target="IDN6OJwdZ1_YzEZNnsdo-14">
          <mxGeometry relative="1" as="geometry" />
        </mxCell>
        <mxCell id="IDN6OJwdZ1_YzEZNnsdo-8" value="ZKEY" style="rounded=0;whiteSpace=wrap;html=1;" vertex="1" parent="1">
          <mxGeometry x="590" y="540" width="120" height="60" as="geometry" />
        </mxCell>
        <mxCell id="IDN6OJwdZ1_YzEZNnsdo-10" style="edgeStyle=orthogonalEdgeStyle;rounded=0;orthogonalLoop=1;jettySize=auto;html=1;exitX=0.5;exitY=1;exitDx=0;exitDy=0;entryX=0.5;entryY=0;entryDx=0;entryDy=0;" edge="1" parent="1" source="IDN6OJwdZ1_YzEZNnsdo-9" target="IDN6OJwdZ1_YzEZNnsdo-6">
          <mxGeometry relative="1" as="geometry" />
        </mxCell>
        <mxCell id="IDN6OJwdZ1_YzEZNnsdo-9" value="Input Signals&lt;div&gt;(JSON)&lt;/div&gt;" style="rounded=0;whiteSpace=wrap;html=1;" vertex="1" parent="1">
          <mxGeometry x="940" y="440" width="120" height="60" as="geometry" />
        </mxCell>
        <mxCell id="IDN6OJwdZ1_YzEZNnsdo-12" value="Proof (JSON)" style="rounded=0;whiteSpace=wrap;html=1;" vertex="1" parent="1">
          <mxGeometry x="660" y="640" width="120" height="60" as="geometry" />
        </mxCell>
        <mxCell id="IDN6OJwdZ1_YzEZNnsdo-14" value="Public (JSON)" style="rounded=0;whiteSpace=wrap;html=1;" vertex="1" parent="1">
          <mxGeometry x="800" y="640" width="120" height="60" as="geometry" />
        </mxCell>
      </root>
    </mxGraphModel>
  </diagram>
</mxfile>
